<svg width="186" height="193" viewBox="0 0 186 193" fill="none" xmlns="http://www.w3.org/2000/svg">
<path d="M99.1875 129.518H86.3306C75.6121 129.518 66.9255 120.832 66.9255 110.113V96.9633C66.9255 93.4497 64.0773 90.5926 60.5548 90.5926H47.4051C36.6866 90.5926 28 81.906 28 71.1875V58.3306C28 47.6121 36.6866 38.9255 47.4051 38.9255H54.9471C57.7155 38.9255 59.9603 41.1704 59.9603 43.9387C59.9603 46.7071 57.7155 48.9519 54.9471 48.9519H47.4051C42.2233 48.9519 38.0175 53.1577 38.0175 58.3395V71.1964C38.0175 76.3781 42.2233 80.5839 47.4051 80.5839H60.5548C69.6052 80.5839 76.9519 87.9218 76.9519 96.9811V110.131C76.9519 115.313 81.1577 119.518 86.3395 119.518H99.1964C104.378 119.518 108.584 115.313 108.584 110.131V100.406C108.584 92.1986 105.39 84.4791 99.5868 78.6762L78.8774 57.958C71.1846 50.2563 66.9433 40.0258 66.9433 29.1387V19.4051C66.9433 8.6866 75.6299 0 86.3484 0H99.2053C109.924 0 118.61 8.6866 118.61 19.4051V32.5548C118.61 36.0684 121.459 38.9255 124.981 38.9255H138.131C148.849 38.9255 157.536 47.6121 157.536 58.3306V71.1875C157.536 81.906 148.849 90.5926 138.131 90.5926H130.598C127.829 90.5926 125.584 88.3477 125.584 85.5794C125.584 82.811 127.829 80.5662 130.598 80.5662H138.131C143.313 80.5662 147.518 76.3604 147.518 71.1786V58.3217C147.518 53.1399 143.313 48.9342 138.131 48.9342H124.963C115.913 48.9342 108.575 41.5963 108.575 32.5459V19.4051C108.575 14.2233 104.369 10.0175 99.1875 10.0175H86.3306C81.1488 10.0175 76.9431 14.2144 76.9431 19.4051V29.1298C76.9431 37.3373 80.1373 45.0567 85.9402 50.8596L106.65 71.569C114.351 79.2618 118.584 89.5012 118.584 100.388V110.113C118.593 120.823 109.906 129.518 99.1875 129.518Z" fill="white"/>
<path d="M4.1595 179.777V144.697H10.8748L25.809 169.453H22.2508L36.9344 144.697H43.5996L43.6998 179.777H36.0824L36.0323 156.373H37.4355L25.7087 176.068H22.0504L10.073 156.373H11.7769V179.777H4.1595ZM64.852 180.178C61.7783 180.178 59.0722 179.576 56.7335 178.374C54.4282 177.171 52.6408 175.534 51.3712 173.462C50.1017 171.358 49.4669 168.969 49.4669 166.296C49.4669 163.59 50.085 161.201 51.3211 159.13C52.5907 157.025 54.3113 155.388 56.4829 154.218C58.6545 153.016 61.1102 152.414 63.8497 152.414C66.4891 152.414 68.8612 152.982 70.966 154.118C73.1042 155.221 74.7914 156.824 76.0276 158.929C77.2637 161.001 77.8818 163.49 77.8818 166.396C77.8818 166.697 77.8651 167.048 77.8317 167.449C77.7983 167.816 77.7649 168.167 77.7314 168.501H55.8314V163.941H73.6221L70.6152 165.294C70.6152 163.891 70.3312 162.671 69.7632 161.635C69.1953 160.6 68.4102 159.798 67.4079 159.23C66.4056 158.629 65.2362 158.328 63.8999 158.328C62.5635 158.328 61.3774 158.629 60.3417 159.23C59.3394 159.798 58.5543 160.616 57.9863 161.686C57.4184 162.721 57.1344 163.957 57.1344 165.394V166.597C57.1344 168.067 57.4518 169.37 58.0866 170.506C58.7548 171.608 59.6735 172.46 60.8429 173.062C62.0456 173.629 63.4488 173.913 65.0525 173.913C66.4891 173.913 67.742 173.696 68.8111 173.262C69.9136 172.828 70.9159 172.176 71.8179 171.308L75.9774 175.818C74.7413 177.221 73.1877 178.307 71.3168 179.075C69.4459 179.81 67.2909 180.178 64.852 180.178ZM94.6631 180.178C92.124 180.178 89.8354 179.61 87.7974 178.474C85.7594 177.305 84.1391 175.684 82.9363 173.613C81.767 171.541 81.1823 169.102 81.1823 166.296C81.1823 163.456 81.767 161.001 82.9363 158.929C84.1391 156.858 85.7594 155.254 87.7974 154.118C89.8354 152.982 92.124 152.414 94.6631 152.414C96.9349 152.414 98.9228 152.916 100.627 153.918C102.331 154.92 103.65 156.44 104.586 158.478C105.521 160.516 105.989 163.122 105.989 166.296C105.989 169.437 105.538 172.043 104.636 174.114C103.734 176.152 102.431 177.672 100.727 178.674C99.0565 179.677 97.0352 180.178 94.6631 180.178ZM96.0162 173.763C97.2857 173.763 98.4384 173.462 99.4741 172.861C100.51 172.26 101.328 171.408 101.93 170.305C102.564 169.169 102.882 167.833 102.882 166.296C102.882 164.726 102.564 163.389 101.93 162.287C101.328 161.184 100.51 160.332 99.4741 159.731C98.4384 159.13 97.2857 158.829 96.0162 158.829C94.7132 158.829 93.5439 159.13 92.5082 159.731C91.4725 160.332 90.6372 161.184 90.0024 162.287C89.4011 163.389 89.1004 164.726 89.1004 166.296C89.1004 167.833 89.4011 169.169 90.0024 170.305C90.6372 171.408 91.4725 172.26 92.5082 172.861C93.5439 173.462 94.7132 173.763 96.0162 173.763ZM103.082 179.777V174.264L103.233 166.246L102.732 158.278V142.592H110.549V179.777H103.082ZM117.785 179.777V152.815H125.603V179.777H117.785ZM121.694 149.057C120.257 149.057 119.088 148.639 118.186 147.804C117.284 146.969 116.833 145.933 116.833 144.697C116.833 143.461 117.284 142.425 118.186 141.59C119.088 140.754 120.257 140.337 121.694 140.337C123.131 140.337 124.3 140.738 125.202 141.54C126.104 142.308 126.555 143.31 126.555 144.546C126.555 145.849 126.104 146.935 125.202 147.804C124.333 148.639 123.164 149.057 121.694 149.057ZM145.888 180.178C142.982 180.178 140.392 179.593 138.121 178.424C135.849 177.221 134.061 175.567 132.758 173.462C131.489 171.358 130.854 168.969 130.854 166.296C130.854 163.59 131.489 161.201 132.758 159.13C134.061 157.025 135.849 155.388 138.121 154.218C140.392 153.016 142.982 152.414 145.888 152.414C148.728 152.414 151.2 153.016 153.305 154.218C155.41 155.388 156.964 157.075 157.966 159.28L151.902 162.537C151.2 161.268 150.315 160.332 149.246 159.731C148.21 159.13 147.074 158.829 145.838 158.829C144.502 158.829 143.299 159.13 142.23 159.731C141.161 160.332 140.309 161.184 139.674 162.287C139.073 163.389 138.772 164.726 138.772 166.296C138.772 167.866 139.073 169.203 139.674 170.305C140.309 171.408 141.161 172.26 142.23 172.861C143.299 173.462 144.502 173.763 145.838 173.763C147.074 173.763 148.21 173.479 149.246 172.911C150.315 172.31 151.2 171.358 151.902 170.055L157.966 173.362C156.964 175.534 155.41 177.221 153.305 178.424C151.2 179.593 148.728 180.178 145.888 180.178ZM171.538 180.178C169.233 180.178 167.011 179.91 164.873 179.376C162.768 178.808 161.097 178.106 159.861 177.271L162.467 171.658C163.703 172.427 165.157 173.062 166.827 173.563C168.531 174.03 170.202 174.264 171.839 174.264C173.643 174.264 174.912 174.047 175.647 173.613C176.416 173.178 176.8 172.577 176.8 171.809C176.8 171.174 176.499 170.706 175.898 170.405C175.33 170.071 174.561 169.821 173.593 169.654C172.624 169.487 171.555 169.32 170.385 169.153C169.249 168.986 168.097 168.768 166.927 168.501C165.758 168.2 164.689 167.766 163.72 167.198C162.751 166.63 161.966 165.862 161.365 164.893C160.797 163.924 160.513 162.671 160.513 161.134C160.513 159.43 160.997 157.927 161.966 156.624C162.968 155.321 164.405 154.302 166.276 153.567C168.147 152.799 170.385 152.414 172.991 152.414C174.829 152.414 176.7 152.615 178.604 153.016C180.508 153.417 182.095 154.001 183.365 154.77L180.759 160.332C179.456 159.564 178.136 159.046 176.8 158.779C175.497 158.478 174.227 158.328 172.991 158.328C171.254 158.328 169.984 158.562 169.183 159.029C168.381 159.497 167.98 160.099 167.98 160.834C167.98 161.502 168.264 162.003 168.832 162.337C169.433 162.671 170.218 162.938 171.187 163.139C172.156 163.339 173.208 163.523 174.344 163.69C175.514 163.824 176.683 164.041 177.852 164.342C179.022 164.642 180.074 165.077 181.01 165.645C181.978 166.179 182.764 166.931 183.365 167.9C183.966 168.835 184.267 170.071 184.267 171.608C184.267 173.279 183.766 174.765 182.764 176.068C181.761 177.338 180.308 178.34 178.404 179.075C176.533 179.81 174.244 180.178 171.538 180.178Z" fill="white"/>
</svg>
